<svg xmlns:xlink="http://www.w3.org/1999/xlink" xmlns="http://www.w3.org/2000/svg" data-id="button-line-small" class="sc-16mwcw0-0 iZNjkc background" preserveAspectRatio="none" width="108" height="50" viewBox="0 0 108 50"><path d="M49.8,49.87A95.58,95.58,0,0,1,21.31,45c-4.78-1.64-11.86-5.32-14.68-7.62-1.56-1.27-4-3.73-4-4.24,0-.2-.5-1.14-.68-1.14C1.4,32,.25,28.74,0,26.61-.33,23,2.36,17.8,6.29,14.55c9.37-7.76,22-12.15,40.37-14C52.18,0,64.72-.19,68.47.27c1.52.19,3.9.44,5.31.56,7.68.67,20.7,4,26.33,6.77,5.43,2.66,6.21,3.88,7.26,6.61.45,1.17-.1,1.65-.6.52-.22-.51-.3-.47-.51.26s-.29.77-1.07-.69c-1.81-3.41-5.18-5.42-13.91-8.12-3.56-1.1-13.56-3.25-13.87-3-.09.09.59.33,1.54.54C89.15,6,96.09,9.43,102.21,15.11c4.39,4.07,5.77,6.73,5.79,11.14a9.65,9.65,0,0,1-1,5.06,22.3,22.3,0,0,1-6.35,7.82c-4.43,3.22-12.13,6.32-20.36,8.2C69.91,49.7,62.63,50.31,49.8,49.87Zm14.55-2a82.1,82.1,0,0,0,27.31-6.63c7.16-3.17,12-8.44,12.74-14a10.29,10.29,0,0,0,0-2.81c-.07-.19,0-.56-.12-1a20.72,20.72,0,0,0-1-2.82c-1.45-3.36-8.22-9.14-13.81-11.78-2.66-1.25-10.58-4-11.54-4S75.35,4,75.35,3.69c0-.16.4-.3.88-.31.88,0,.88,0,.06-.31-3.52-1.25-20.71-1.58-29.43-.58C30.31,4.4,18.57,8.5,10.64,15.13c-4.34,3.64-6,6.37-6.32,10.35-.26,3.26.34,4.95,2.87,8.1,2,2.48,3.48,3.67,7.33,5.88,6.6,3.79,13.61,6,23.49,7.53A125.76,125.76,0,0,0,64.35,47.82Z" fill-rule="evenodd" stroke="#B54E37" fill="#B54E37" stroke-width="0px"></path></svg>