<?xml version="1.0" encoding="utf-8"?>
<!-- Generator: Adobe Illustrator 24.2.3, SVG Export Plug-In . SVG Version: 6.00 Build 0)  -->
<svg version="1.1" id="Layer_1" xmlns="http://www.w3.org/2000/svg" xmlns:xlink="http://www.w3.org/1999/xlink" x="0px" y="0px"
	 viewBox="0 0 108 50" style="enable-background:new 0 0 108 50;" xml:space="preserve">
<style type="text/css">
	.st0{fill-rule:evenodd;clip-rule:evenodd;fill:#195908;}
</style>
<path class="st0" d="M49.8,49.9c-9.7-0.2-19.3-1.8-28.5-4.9c-4.8-1.6-11.9-5.3-14.7-7.6c-1.6-1.3-4-3.7-4-4.2c0-0.2-0.5-1.1-0.7-1.1
	c-0.5,0-1.7-3.3-1.9-5.4c-0.3-3.6,2.4-8.8,6.3-12.1c9.4-7.8,22-12.1,40.4-14C52.2,0,64.7-0.2,68.5,0.3c1.5,0.2,3.9,0.4,5.3,0.6
	c7.7,0.7,20.7,4,26.3,6.8c5.4,2.7,6.2,3.9,7.3,6.6c0.4,1.2-0.1,1.6-0.6,0.5c-0.2-0.5-0.3-0.5-0.5,0.3s-0.3,0.8-1.1-0.7
	c-1.8-3.4-5.2-5.4-13.9-8.1c-3.6-1.1-13.6-3.3-13.9-3c-0.1,0.1,0.6,0.3,1.5,0.5C89.2,6,96.1,9.4,102.2,15.1
	c4.4,4.1,5.8,6.7,5.8,11.1c0.1,1.7-0.2,3.5-1,5.1c-1.5,3.1-3.7,5.7-6.3,7.8c-4.4,3.2-12.1,6.3-20.4,8.2
	C69.9,49.7,62.6,50.3,49.8,49.9z M64.3,47.9c9.4-0.6,18.7-2.9,27.3-6.6c7.2-3.2,12-8.4,12.7-14c0.1-0.9,0.1-1.9,0-2.8
	c-0.1-0.2,0-0.6-0.1-1c-0.3-1-0.6-1.9-1-2.8c-1.4-3.4-8.2-9.1-13.8-11.8c-2.7-1.3-10.6-4-11.5-4S75.3,4,75.3,3.7
	c0-0.2,0.4-0.3,0.9-0.3c0.9,0,0.9,0,0.1-0.3c-3.5-1.3-20.7-1.6-29.4-0.6c-16.5,1.9-28.3,6-36.2,12.6c-4.3,3.6-6,6.4-6.3,10.3
	c-0.3,3.3,0.3,5,2.9,8.1c2,2.5,3.5,3.7,7.3,5.9c6.6,3.8,13.6,6,23.5,7.5C46.7,48.2,55.6,48.5,64.3,47.9L64.3,47.9z"/>
</svg>
