<svg xmlns:xlink="http://www.w3.org/1999/xlink" xmlns="http://www.w3.org/2000/svg" data-id="close" class="sc-16mwcw0-0 iZNjkc" width="20" height="18" viewBox="0 0 20 18"><path d="M2.48,17.5a.46.46,0,0,1-.33-.13.49.49,0,0,1,0-.7L6.63,11.6,1.32,15.93a.5.5,0,0,1-.66-.75L8.57,7.87,1.9,2.1a.5.5,0,0,1,.65-.76l5,4.36L3.35,1.53a.5.5,0,0,1,0-.71.49.49,0,0,1,.7,0L9.93,6.61l6.48-6a.5.5,0,0,1,.71.7l-1.33,1.5,2.13-1.75a.5.5,0,0,1,.67.75L11.83,8.48l7.52,7.41a.5.5,0,0,1-.68.74L10.29,9.37h0L10.1,9.2,2.85,17.33A.51.51,0,0,1,2.48,17.5Z" stroke="#000000" stroke-width="0px"></path></svg>