<svg xmlns:xlink="http://www.w3.org/1999/xlink" xmlns="http://www.w3.org/2000/svg" data-id="burger" class="sc-16mwcw0-0 iZNjkc" width="30" height="18" viewBox="0 0 30 18"><path d="M29,2.5h0L11.47,1.87,6.51,2A.53.53,0,0,1,6,1.68L1,1.5A.51.51,0,0,1,.5,1,.5.5,0,0,1,1,.5H26.2a.5.5,0,0,1,.29.91L29,1.5a.5.5,0,0,1,.48.5V2A.5.5,0,0,1,29,2.5Z" stroke="#000000" stroke-width="0px"></path><path d="M29,10.5h0L17.57,9.69,1,10.5A.49.49,0,0,1,.5,10,.5.5,0,0,1,1,9.5l8.29-.41L1,8.5A.5.5,0,0,1,.5,8,.54.54,0,0,1,1,7.5l27.1.67a.5.5,0,0,1,.49.49.51.51,0,0,1-.48.51l-2.24.11L29,9.5a.5.5,0,0,1,.46.5v0A.5.5,0,0,1,29,10.5Z" stroke="#000000" stroke-width="0px"></path><path d="M29,17.5h0l-9.4-.18a.52.52,0,0,1-.39.18H1a.5.5,0,0,1,0-1H2.6A.51.51,0,0,1,3.1,16h0l11.47.22A.56.56,0,0,1,15,16l14,.5a.5.5,0,0,1,0,1Z" stroke="#000000" stroke-width="0px"></path></svg>